<svg xmlns="http://www.w3.org/2000/svg" width="400" height="400" fill="none" viewBox="0 0 400 400"><g clip-path="url(#a)"><path fill="#0F0101" d="M0 0h400v400H0z"/><path fill="#EC430E" fill-rule="evenodd" d="M149.823 177.522c-27.866-31.126-20.544-79.922 15.229-101.5 22.117-13.342 49.963-12.622 71.383 1.617C272.029 101.3 276.972 152.067 246 181.91l-1.185 16.219-37.306-41.326 7.416-7.144c10.164-9.794 8.695-26.76-3.284-34.722-7.082-4.709-16.267-4.903-23.457-.566-11.729 7.075-14.129 23.073-4.993 33.279l66.685 74.488c27.881 31.144 20.561 79.966-15.227 101.565-22.129 13.355-49.993 12.65-71.438-1.605-35.605-23.669-40.506-74.423-9.546-104.253l2.343-16.079 36.026 41.302-7.294 7.028c-10.174 9.803-8.699 26.751 3.265 34.704 7.094 4.716 16.291 4.911 23.503.559 11.75-7.092 14.154-23.123 4.999-33.349l-66.684-74.488Z" clip-rule="evenodd"/></g><defs><clipPath id="a"><path fill="#fff" d="M0 0h400v400H0z"/></clipPath></defs></svg>