<svg xmlns="http://www.w3.org/2000/svg" width="24" height="24" fill="none" viewBox="0 0 24 24"><path fill="#F2A900" d="M11.9887 2.09827C11.6992 2.09827 11.4097 2.16314 11.1854 2.29289L4.02512 6.43477C3.57653 6.69427 3.57653 7.10461 4.02512 7.36411L11.1854 11.506C11.634 11.7655 12.3434 11.7655 12.7919 11.506L19.9522 7.36411C20.4008 7.10466 20.4008 6.69427 19.9522 6.43481L12.7919 2.29294C12.5676 2.16309 12.2782 2.09827 11.9887 2.09827ZM12.0759 2.68059C12.4501 2.69035 12.8045 2.78293 13.0694 2.94009C13.346 3.10729 13.5001 3.33252 13.4983 3.56681C13.4964 3.80109 13.3388 4.02547 13.0596 4.19113C12.7804 4.35679 12.4022 4.45034 12.0074 4.45142C11.6126 4.4525 11.233 4.36103 10.9512 4.19691C10.7379 4.07027 10.5939 3.90833 10.5383 3.73232C10.4827 3.55631 10.518 3.37444 10.6396 3.21054C10.7611 3.04663 10.9633 2.90834 11.2196 2.81379C11.4759 2.71923 11.7743 2.67282 12.0759 2.68064L12.0759 2.68059ZM6.48967 5.97066C6.4897 5.97066 6.48973 5.97066 6.48976 5.97066C6.86395 5.98039 7.21842 6.07296 7.48328 6.23011C7.76416 6.39679 7.92196 6.62285 7.92194 6.85856C7.92193 7.09428 7.76412 7.32033 7.48322 7.487C7.20232 7.65367 6.82134 7.7473 6.42409 7.7473C6.02685 7.74729 5.64588 7.65365 5.36499 7.48697C5.15159 7.36033 5.00764 7.19839 4.95201 7.02238C4.89638 6.84636 4.93166 6.66447 5.05324 6.50056C5.17481 6.33665 5.377 6.19835 5.63331 6.10379C5.88962 6.00923 6.1881 5.96283 6.48962 5.97066H6.48967ZM12.0322 5.9821C12.3265 5.98468 12.6129 6.03866 12.8558 6.13729C13.0987 6.23592 13.2873 6.37482 13.3979 6.53665C13.5085 6.69848 13.5364 6.87607 13.4779 7.04723C13.4195 7.2184 13.2773 7.37555 13.0693 7.49906C12.9307 7.58285 12.7655 7.64951 12.5832 7.69519C12.4009 7.74087 12.2052 7.76467 12.0074 7.76522C11.8095 7.76576 11.6134 7.74304 11.4304 7.69837C11.2475 7.65369 11.0812 7.58794 10.9413 7.50493C10.8014 7.42191 10.6906 7.32327 10.6153 7.2147C10.54 7.10613 10.5017 6.98978 10.5026 6.87237C10.5035 6.75497 10.5436 6.63884 10.6206 6.53068C10.6976 6.42253 10.8099 6.3245 10.9511 6.24225C11.0928 6.15819 11.2615 6.09185 11.4472 6.04717C11.6328 6.00248 11.8317 5.98035 12.0321 5.9821H12.0322ZM17.6414 5.9828C17.6414 5.9828 17.6414 5.9828 17.6415 5.9828C18.0157 5.99253 18.3701 6.0851 18.635 6.24225C18.9138 6.40918 19.0699 6.63485 19.069 6.86989C19.0681 7.10492 18.9103 7.33017 18.6302 7.49636C18.3501 7.66255 17.9705 7.75613 17.5744 7.75664C17.1783 7.75715 16.798 7.66453 16.5167 7.49906C16.3033 7.37242 16.1594 7.21048 16.1038 7.03447C16.0482 6.85846 16.0835 6.67659 16.205 6.51268C16.3266 6.34877 16.5288 6.21048 16.7851 6.11593C17.0414 6.02138 17.3399 5.97497 17.6414 5.9828ZM3.54699 8.1487C3.27732 8.14144 3.09399 8.35195 3.09399 8.72433V16.1163C3.09399 16.6344 3.44884 17.249 3.89743 17.508L10.7848 21.4853C11.2334 21.7443 11.5882 21.5395 11.5882 21.0215V13.6293C11.5882 13.1113 11.2334 12.4968 10.7848 12.2377L3.89743 8.2605C3.77134 8.18761 3.65251 8.15142 3.54699 8.14861V8.1487ZM20.4582 8.1488C20.3528 8.15161 20.234 8.18771 20.1079 8.2606L13.2203 12.2378C12.7717 12.4969 12.4169 13.1115 12.4169 13.6295V21.0217C12.4169 21.5397 12.7717 21.7444 13.2203 21.4853L20.1079 17.5082C20.5565 17.2492 20.9112 16.6347 20.9112 16.1166V8.72442C20.9112 8.35214 20.7279 8.14167 20.4582 8.14889V8.1488ZM4.18576 9.17667C4.3462 9.16554 4.52845 9.21589 4.71408 9.32263C4.89972 9.42937 5.08217 9.58872 5.243 9.78458C5.40383 9.98043 5.53734 10.2059 5.63005 10.4381C5.72276 10.6703 5.77137 10.9011 5.77098 11.1071C5.77114 11.2612 5.74398 11.3981 5.69105 11.5099C5.63812 11.6216 5.56045 11.7062 5.4625 11.7586C5.36455 11.811 5.24822 11.8303 5.12018 11.8153C4.99213 11.8004 4.85488 11.7515 4.71628 11.6715C4.57767 11.5914 4.44042 11.4819 4.31238 11.349C4.18433 11.216 4.06801 11.0624 3.97006 10.8969C3.87211 10.7314 3.79445 10.5572 3.74152 10.3843C3.68859 10.2114 3.66144 10.0432 3.6616 9.88931C3.66122 9.68367 3.70944 9.50958 3.80144 9.38451C3.89344 9.25943 4.02597 9.18776 4.18576 9.17667ZM19.8195 9.17667C19.9793 9.18775 20.1119 9.25941 20.2039 9.38449C20.2959 9.50957 20.3441 9.68366 20.3437 9.88931C20.3434 10.2001 20.2321 10.562 20.0344 10.8956C19.8366 11.2293 19.5685 11.5073 19.289 11.6687C19.0095 11.8301 18.7415 11.8616 18.5437 11.7563C18.3459 11.651 18.2347 11.4175 18.2343 11.1071C18.2339 10.9011 18.2826 10.6703 18.3753 10.4381C18.468 10.2059 18.6015 9.98043 18.7623 9.78458C18.9231 9.58872 19.1056 9.42937 19.2912 9.32263C19.4769 9.21589 19.6591 9.16554 19.8196 9.17667H19.8195ZM12.0759 9.28514C12.45 9.29488 12.8045 9.38745 13.0693 9.5446C13.3459 9.71179 13.5001 9.93703 13.4982 10.1713C13.4964 10.4056 13.3387 10.63 13.0595 10.7956C12.7803 10.9613 12.4022 11.0548 12.0074 11.0559C11.6125 11.057 11.2329 10.9655 10.9512 10.8014C10.7378 10.6748 10.5938 10.5128 10.5382 10.3368C10.4826 10.1608 10.5179 9.97891 10.6394 9.815C10.761 9.65108 10.9632 9.51279 11.2195 9.41823C11.4758 9.32367 11.7743 9.27727 12.0758 9.2851L12.0759 9.28514ZM17.1945 10.6922C17.3543 10.7033 17.4869 10.775 17.5789 10.9001C17.6709 11.0251 17.7191 11.1992 17.7187 11.4049C17.7184 11.7156 17.6071 12.0776 17.4094 12.4112C17.2116 12.7448 16.9435 13.0229 16.664 13.1843C16.3845 13.3456 16.1165 13.3771 15.9187 13.2718C15.7209 13.1665 15.6097 12.9331 15.6093 12.6227C15.6089 12.4167 15.6576 12.1859 15.7503 11.9536C15.843 11.7214 15.9765 11.496 16.1373 11.3001C16.2981 11.1043 16.4806 10.9449 16.6662 10.8382C16.8519 10.7315 17.0341 10.6811 17.1946 10.6922H17.1945ZM9.43576 12.2078C9.5962 12.1967 9.77844 12.247 9.96408 12.3538C10.1497 12.4605 10.3322 12.6199 10.493 12.8157C10.6538 13.0116 10.7873 13.237 10.88 13.4692C10.9727 13.7014 11.0213 13.9322 11.0209 14.1383C11.0211 14.2924 10.9939 14.4292 10.941 14.541C10.8881 14.6528 10.8104 14.7373 10.7125 14.7897C10.6145 14.8421 10.4982 14.8614 10.3701 14.8464C10.2421 14.8315 10.1048 14.7826 9.96623 14.7026C9.82762 14.6226 9.69037 14.513 9.56233 14.3801C9.43429 14.2472 9.31796 14.0936 9.22001 13.9281C9.12206 13.7625 9.0444 13.5884 8.99147 13.4155C8.93855 13.2426 8.91139 13.0744 8.91156 12.9204C8.91117 12.7148 8.9594 12.5407 9.05139 12.4156C9.14339 12.2906 9.27597 12.2189 9.43576 12.2078ZM14.5695 12.2078C14.7293 12.2189 14.8619 12.2905 14.9539 12.4156C15.0459 12.5407 15.0941 12.7148 15.0937 12.9204C15.0934 13.2312 14.9821 13.5931 14.7844 13.9268C14.5866 14.2604 14.3185 14.5384 14.039 14.6998C13.7595 14.8612 13.4915 14.8927 13.2937 14.7874C13.0959 14.6821 12.9847 14.4486 12.9843 14.1383C12.9839 13.9322 13.0326 13.7014 13.1253 13.4692C13.218 13.237 13.3515 13.0116 13.5123 12.8157C13.6731 12.6198 13.8556 12.4605 14.0412 12.3538C14.2269 12.247 14.4091 12.1967 14.5696 12.2078H14.5695ZM4.18581 14.9287C4.34625 14.9176 4.5285 14.9679 4.71413 15.0747C4.89977 15.1814 5.08222 15.3408 5.24304 15.5367C5.40387 15.7325 5.53737 15.9579 5.63007 16.1902C5.72277 16.4224 5.77138 16.6532 5.77098 16.8592C5.77114 17.0133 5.74398 17.1502 5.69105 17.2619C5.63812 17.3737 5.56045 17.4582 5.4625 17.5106C5.36455 17.5631 5.24822 17.5823 5.12018 17.5674C4.99213 17.5525 4.85488 17.5036 4.71628 17.4236C4.57767 17.3435 4.44042 17.2339 4.31238 17.101C4.18433 16.9681 4.06801 16.8145 3.97006 16.649C3.87211 16.4835 3.79445 16.3093 3.74152 16.1364C3.68859 15.9635 3.66144 15.7953 3.6616 15.6414C3.66121 15.4357 3.70943 15.2616 3.80143 15.1366C3.89342 15.0115 4.02601 14.9398 4.18581 14.9287ZM19.8196 14.9287C19.9794 14.9398 20.1119 15.0115 20.2039 15.1366C20.2959 15.2616 20.3441 15.4357 20.3437 15.6414C20.3434 15.9521 20.2321 16.3141 20.0344 16.6477C19.8366 16.9814 19.5685 17.2594 19.289 17.4208C19.0095 17.5821 18.7415 17.6136 18.5437 17.5083C18.3459 17.403 18.2347 17.1696 18.2343 16.8592C18.2339 16.6532 18.2825 16.4224 18.3752 16.1902C18.468 15.9579 18.6015 15.7325 18.7623 15.5366C18.9231 15.3408 19.1056 15.1814 19.2912 15.0747C19.4769 14.9679 19.6591 14.9176 19.8196 14.9287ZM17.1946 16.4443C17.3544 16.4554 17.4869 16.527 17.5789 16.6521C17.6709 16.7772 17.7191 16.9513 17.7187 17.157C17.7184 17.4677 17.6071 17.8297 17.4094 18.1633C17.2116 18.497 16.9435 18.775 16.664 18.9364C16.3845 19.0977 16.1165 19.1292 15.9187 19.0239C15.7209 18.9187 15.6097 18.6852 15.6093 18.3748C15.6089 18.1688 15.6576 17.938 15.7503 17.7058C15.843 17.4735 15.9765 17.2481 16.1373 17.0523C16.2981 16.8564 16.4806 16.6971 16.6662 16.5903C16.8519 16.4836 17.0341 16.4332 17.1946 16.4444V16.4443ZM9.43581 17.9597C9.59625 17.9486 9.7785 17.999 9.96413 18.1057C10.1498 18.2125 10.3322 18.3718 10.493 18.5677C10.6539 18.7636 10.7874 18.989 10.8801 19.2212C10.9728 19.4534 11.0214 19.6842 11.021 19.8902C11.0211 20.0443 10.994 20.1812 10.941 20.293C10.8881 20.4048 10.8105 20.4893 10.7125 20.5417C10.6145 20.5941 10.4982 20.6134 10.3702 20.5984C10.2421 20.5835 10.1049 20.5346 9.96628 20.4546C9.82767 20.3746 9.69042 20.265 9.56238 20.1321C9.43433 19.9992 9.31801 19.8456 9.22006 19.68C9.12211 19.5145 9.04445 19.3403 8.99152 19.1674C8.93859 18.9946 8.91144 18.8263 8.9116 18.6724C8.91122 18.4668 8.95944 18.2927 9.05144 18.1676C9.14343 18.0425 9.27597 17.9709 9.43576 17.9598L9.43581 17.9597ZM14.5696 17.9597C14.7294 17.9708 14.8619 18.0425 14.9539 18.1676C15.0459 18.2927 15.0941 18.4668 15.0937 18.6725C15.0934 18.9832 14.9821 19.3452 14.7844 19.6788C14.5866 20.0124 14.3185 20.2905 14.039 20.4518C13.7595 20.6132 13.4915 20.6447 13.2937 20.5394C13.0959 20.4341 12.9847 20.2006 12.9843 19.8903C12.9839 19.6842 13.0326 19.4535 13.1253 19.2212C13.218 18.989 13.3515 18.7636 13.5123 18.5677C13.6731 18.3719 13.8556 18.2125 14.0412 18.1058C14.2269 17.999 14.4091 17.9487 14.5696 17.9598V17.9597Z"/></svg>