<svg width="24" height="20" viewBox="0 0 24 20" fill="none" xmlns="http://www.w3.org/2000/svg">
<path d="M11.6676 0.0587518C6.61421 0.0865018 2.56383 1.21235 1.36069 6.46914C0.28191 11.1831 1.59774 14.7425 2.41425 16.2469C3.2483 16.1385 4.85597 15.5899 5.64057 16.2141C7.73949 17.8836 8.61586 19.2415 10.4142 18.9136C11.314 18.7495 12.1892 18.0366 12.8892 17.1872C13.7121 17.3503 14.6048 17.4277 15.5128 17.4496C15.8697 17.4582 16.2297 17.4572 16.59 17.4482C16.7186 17.8126 16.8589 18.1394 17.01 18.4254C17.3594 19.0867 17.7597 19.5719 18.3263 19.7073C19.5668 20.0035 21.0797 20.028 22.8143 19.7282L22.9614 19.7488C22.9636 19.7333 22.9654 19.7174 22.9675 19.7017C22.9703 19.7013 22.9729 19.7009 22.9756 19.7003L22.971 19.6752C23.1973 17.9558 22.9129 15.9003 22.1284 14.0042C22.1315 14.0028 22.1349 14.0014 22.138 14.0001L21.8017 13.2263C21.0341 13.5598 18.9056 13.9386 16.7281 14.1049C16.5606 12.6621 16.5215 10.9679 16.6761 9.11969C18.4247 8.24327 19.9264 7.98906 21.4761 7.55561C21.4242 7.2964 21.3673 7.03822 21.3053 6.78124C18.7898 7.41663 15.5173 8.52911 12.6904 9.80467C12.4747 9.90203 12.1526 10.207 11.8352 10.6445C11.567 11.0143 11.2943 11.4708 11.0295 11.9506C11.3206 12.3412 11.4936 12.8244 11.4936 13.3463C11.4936 13.5502 11.467 13.7483 11.4175 13.9372C11.6676 14.0028 11.831 14.0694 11.981 14.1107C12.2097 14.1737 12.4919 14.2163 13.2772 14.1795L13.3167 15.0223C12.4884 15.0612 12.0771 15.0123 11.757 14.9242C11.4977 14.8529 11.3483 14.7812 11.0477 14.7164C10.9503 14.851 10.839 14.975 10.7157 15.0863L12.687 16.0719L12.3096 16.8265L9.83227 15.5878C9.61112 15.6556 9.38109 15.6901 9.14977 15.69C7.86024 15.69 6.80602 14.6358 6.80602 13.3463C6.80602 12.0569 7.86024 11.0025 9.14977 11.0025C9.60511 11.0025 10.0308 11.1346 10.3915 11.3615C10.6342 10.93 10.8875 10.5139 11.1522 10.149C11.5091 9.65697 11.8755 9.24667 12.3434 9.0355C15.2196 7.73767 18.5124 6.61694 21.085 5.9665C20.1858 3.00981 18.0951 0.0234081 11.6676 0.0587518ZM15.794 9.60513C15.6859 11.2739 15.7302 12.8129 15.8842 14.1588C15.3794 14.1847 14.8779 14.1993 14.3947 14.2009C14.3961 14.1801 14.3972 14.1597 14.3977 14.1399C14.4348 12.6458 14.063 10.765 14.9903 10.1235C15.2525 9.94203 15.5205 9.76916 15.794 9.60513ZM9.14968 11.8463C8.31624 11.8463 7.64968 12.5129 7.64968 13.3463C7.64968 14.1798 8.31624 14.8463 9.14968 14.8463C9.98311 14.8463 10.6497 14.1798 10.6497 13.3463C10.6497 12.5129 9.98311 11.8463 9.14968 11.8463ZM21.3264 14.2746C21.5457 14.8003 21.7254 15.3416 21.8641 15.8941C21.3423 16.027 20.7506 16.1511 20.1139 16.2576C19.9839 15.7684 19.7905 15.2803 19.4859 14.6492C20.1805 14.5424 20.8078 14.4168 21.3263 14.2746L21.3264 14.2746ZM18.6072 14.7704C18.95 15.4519 19.1548 15.9229 19.2873 16.3819C18.5945 16.4753 17.8982 16.5408 17.2001 16.5783C17.1184 16.2918 17.0423 15.9827 16.9739 15.6526C16.9253 15.4171 16.8819 15.1806 16.8438 14.9432C17.448 14.8978 18.0416 14.8398 18.6072 14.7704H18.6072ZM15.9976 14.9975C16.0426 15.2839 16.0928 15.5596 16.1477 15.8239C16.2021 16.0873 16.2637 16.3491 16.3326 16.6091C16.0645 16.6131 15.7975 16.6126 15.5332 16.6062C14.8065 16.5887 14.1048 16.5253 13.4563 16.4146C13.7652 15.9416 14.0123 15.4648 14.1758 15.0439C14.7653 15.0469 15.3796 15.0306 15.9976 14.9975H15.9976ZM22.0397 16.7202C22.1761 17.5014 22.226 18.2677 22.1886 18.9729C21.5785 19.0577 21.0047 19.0977 20.4706 19.0975C20.4061 18.2542 20.3584 17.6179 20.2808 17.0871C20.9147 16.98 21.5077 16.8552 22.0397 16.7202L22.0397 16.7202ZM19.4589 17.2123C19.5239 17.6814 19.5633 18.2643 19.6225 19.0607C19.2283 19.026 18.8606 18.9676 18.5223 18.8868C18.3678 18.8499 18.0507 18.5895 17.7559 18.0313C17.6603 17.8505 17.5665 17.6423 17.4762 17.4096C18.1522 17.3682 18.8192 17.2998 19.4589 17.2123Z" fill="#F2A900"/>
</svg>
