<svg width="24" height="24" viewBox="0 0 24 24" fill="none" xmlns="http://www.w3.org/2000/svg">
<path d="M10.1133 0.987352C10.0521 0.987352 9.99225 0.989461 9.93455 0.993211C9.84248 0.999164 9.75745 1.01126 9.67673 1.02687L8.03766 3.86721C8.2372 3.81551 8.44641 3.78809 8.66156 3.78809C9.66581 3.78809 10.5333 4.38705 10.9306 5.24562L12.7676 2.06543C12.5545 1.79515 12.0784 1.45296 11.5034 1.24371C11.0468 1.07749 10.5417 0.987211 10.1133 0.987352ZM14.1314 1.80907C14.0572 1.80766 13.9875 1.81127 13.9219 1.81788L11.8345 5.43462C12.0607 5.36684 12.3002 5.32915 12.5479 5.32915C13.5237 5.32915 14.3724 5.89399 14.7847 6.71346L16.8076 3.20806C16.6142 2.88349 16.1553 2.47385 15.5992 2.19874C15.1098 1.95673 14.5583 1.81727 14.1314 1.80912L14.1314 1.80907ZM6.51422 3.18457C6.00319 3.19488 5.5132 3.37596 4.99078 3.75738C4.50206 4.11405 3.99844 4.65471 3.47752 5.36721L5.71875 6.13034L7.34325 3.31643C7.09022 3.2329 6.84811 3.1902 6.61669 3.18457C6.58247 3.18377 6.54825 3.18391 6.51417 3.18457H6.51422ZM17.3584 4.00784L15.2578 7.64796C15.5074 7.56279 15.7741 7.51465 16.0518 7.51465C17.0049 7.51465 17.8351 8.05887 18.2505 8.85209L19.9835 5.85209C19.8164 5.45365 19.3789 4.94951 18.8496 4.58505C18.3384 4.23284 17.7505 4.02377 17.3584 4.00784ZM8.66156 4.66409C7.75828 4.66409 7.03416 5.38821 7.03416 6.29299C7.03416 7.19777 7.75837 7.9219 8.66166 7.9219C9.56494 7.9219 10.2876 7.19791 10.2876 6.29299C10.2876 5.38821 9.56494 4.66409 8.66156 4.66409ZM2.74359 6.04399C2.26266 8.41071 2.30944 10.8296 3.02789 12.8906C3.03661 12.9158 3.04533 12.9403 3.05423 12.9654L3.06305 12.9551L3.39703 13.4341C3.43791 13.4927 3.48187 13.5522 3.52734 13.6113C3.48811 11.6795 4.02 9.42795 5.28225 6.90818L2.74359 6.04409V6.04399ZM12.5478 6.2051C11.6445 6.2051 10.9219 6.92773 10.9219 7.8326C10.9219 8.73729 11.6445 9.46151 12.5479 9.46151C13.4512 9.46151 14.1753 8.73748 14.1753 7.8326C14.1753 6.92773 13.4512 6.2051 12.5478 6.2051H12.5478ZM20.4829 6.79985L18.5243 10.1924C18.5221 10.2212 18.5203 10.2503 18.517 10.2788C18.7178 10.2223 18.9288 10.191 19.147 10.191C20.1453 10.191 21.002 10.8261 21.3369 11.7115L23.0493 8.74666C22.8885 8.33135 22.4578 7.80485 21.9345 7.41949C21.4367 7.05293 20.8638 6.82887 20.4829 6.7999L20.4829 6.79985ZM6.24605 6.9507C4.68225 9.9394 4.21388 12.481 4.46925 14.4786C4.47548 14.5275 4.48266 14.5753 4.48973 14.6236C5.42958 15.4638 6.7013 16.3073 8.06395 17.0479C9.94692 18.0711 12.006 18.9172 13.5982 19.3975C15.5683 18.6828 17.55 17.2179 19.1836 14.8755C19.1715 14.8757 19.1593 14.8769 19.1471 14.8769C17.8592 14.8769 16.8061 13.823 16.8061 12.5347C16.8061 12.4766 16.8093 12.419 16.8135 12.3619C16.5733 12.4399 16.3173 12.4834 16.0518 12.4834C14.725 12.4834 13.6335 11.429 13.5718 10.1162C13.2588 10.2577 12.9124 10.3374 12.548 10.3374C11.3445 10.3374 10.3345 9.47726 10.0988 8.34077C9.69164 8.62831 9.19547 8.79781 8.6617 8.79781C7.51186 8.79781 6.53677 8.01199 6.24623 6.95065L6.24605 6.9507ZM16.0518 8.39065C15.1596 8.39065 14.4448 9.10549 14.4448 9.99907C14.4448 10.8926 15.1597 11.6074 16.0517 11.6074C16.9439 11.6074 17.6572 10.8928 17.6572 9.99902C17.6572 9.10545 16.9439 8.39065 16.0518 8.39065ZM19.1469 11.0684C18.3331 11.0684 17.6821 11.7194 17.6821 12.5346C17.6821 13.35 18.3331 14.001 19.1469 14.001C19.9609 14.001 20.6118 13.3501 20.6118 12.5347C20.6118 11.7194 19.9609 11.0684 19.1469 11.0684V11.0684ZM3.04252 14.4024C2.69456 14.8556 2.37797 15.301 2.08889 15.7369C2.23992 16.1662 2.5628 16.6481 3.05719 17.1416C3.70875 17.7921 4.64222 18.4554 5.76703 19.0664C7.71656 20.1253 10.2413 21.0284 12.8935 21.5288C13.0374 21.1095 13.167 20.6686 13.2788 20.2046C11.6211 19.7007 9.56597 18.8609 7.64503 17.8169C5.79862 16.8135 4.09819 15.6532 3.04252 14.4024ZM1.53375 16.6202C1.32534 16.9724 1.13611 17.317 0.965344 17.6558C1.03411 18.0809 1.33861 18.6022 1.88377 19.1426C2.45789 19.7117 3.28252 20.2956 4.2788 20.8331C6.20461 21.8718 8.76848 22.7418 11.4141 23.1387H12.2286C12.35 22.8893 12.4675 22.6304 12.5787 22.3623C9.89386 21.8411 7.35403 20.9265 5.34825 19.8369C4.16888 19.1963 3.17438 18.4953 2.439 17.7613C2.06813 17.391 1.75978 17.011 1.53384 16.6202H1.53375ZM0.855469 19.3169V20.915C0.904547 21.0229 1.00509 21.1719 1.17773 21.3355C1.4243 21.569 1.79545 21.8243 2.24855 22.0635C3.13355 22.5308 4.33139 22.9389 5.55905 23.1387H7.54688C6.19655 22.7124 4.94316 22.1863 3.86278 21.6035C2.81217 21.0368 1.92516 20.4175 1.26708 19.7651C1.11834 19.6177 0.980812 19.4686 0.855516 19.317L0.855469 19.3169ZM0.855469 22.2129V23.1387H2.46534C2.24691 23.0427 2.03723 22.9426 1.83984 22.8384C1.46813 22.642 1.13616 22.434 0.855469 22.2129V22.2129Z" fill="#F2A900"/>
</svg>
