<svg width="24" height="19" viewBox="0 0 24 19" fill="none" xmlns="http://www.w3.org/2000/svg">
<path d="M6.30901 0.439472C5.48766 0.704315 4.84501 0.995128 4.05315 1.57619C3.95049 1.67449 3.84985 1.774 3.75127 1.87647C3.76252 1.903 3.77987 1.93577 3.80551 1.98194C3.85313 2.06782 3.93521 2.17052 4.03847 2.2721C3.87657 2.5316 3.72929 2.7911 3.59316 3.05135C3.42141 2.90885 3.26729 2.75027 3.14344 2.57228C2.7864 3.01783 2.46493 3.49469 2.18541 3.99916C2.20393 4.07585 2.2584 4.15947 2.3626 4.2715C2.4871 4.40524 2.68158 4.54338 2.90757 4.66122C2.81269 4.94796 2.73132 5.23328 2.66447 5.5181C2.31572 5.35966 1.99674 5.15397 1.74601 4.89264C1.46757 5.53971 1.25508 6.22483 1.1176 6.93902C1.18018 7.05311 1.29169 7.1576 1.46035 7.26864C1.6981 7.42521 2.03972 7.55346 2.41107 7.62757C2.40896 7.9293 2.42279 8.2286 2.44913 8.524C1.91443 8.44558 1.3989 8.278 0.978428 8.00106C0.976084 7.99947 0.973459 7.99825 0.971115 7.99666C0.909709 8.72744 0.93024 9.44791 1.02235 10.1485C1.13063 10.3116 1.31185 10.4277 1.5819 10.5206C1.92905 10.6399 2.4009 10.6773 2.88127 10.629C2.97502 10.9159 3.08166 11.1976 3.20049 11.4727C2.54565 11.5711 1.87688 11.5488 1.29769 11.3497C1.2819 11.3442 1.26652 11.3379 1.25082 11.3321C1.43729 12.0582 1.70363 12.7557 2.04038 13.4136C2.20693 13.5451 2.43179 13.6113 2.73038 13.6319C3.16632 13.6621 3.72151 13.5508 4.25091 13.3345C4.42491 13.581 4.60857 13.8192 4.80169 14.0494C4.11872 14.3642 3.37857 14.5498 2.68937 14.5064C3.15587 15.1909 3.70365 15.8172 4.32268 16.3697C4.52237 16.4375 4.75862 16.4384 5.04333 16.3828C5.49333 16.295 6.02091 16.0358 6.49787 15.6797C6.49824 15.6799 6.49908 15.6795 6.49937 15.6797C6.74096 15.8662 6.99043 16.043 7.24496 16.207C6.68358 16.6716 6.04379 17.0365 5.39199 17.2017C5.93827 17.5711 6.52393 17.8894 7.14244 18.148C7.37386 18.1678 7.62479 18.103 7.90857 17.9649C8.26819 17.7898 8.64826 17.4843 8.9881 17.108C9.78666 17.4259 10.6162 17.6339 11.452 17.7129L11.5354 16.8399C10.8666 16.7766 10.1956 16.6163 9.54033 16.374C9.86297 15.8533 10.0846 15.2878 10.1469 14.8067C10.2021 14.3794 10.1508 14.0493 9.96961 13.8018C9.59086 13.7277 9.22477 13.6171 8.87391 13.4736C8.86585 13.7769 8.79394 14.0824 8.6761 14.3687C8.50055 14.7954 8.22985 15.2029 7.90126 15.5743C7.65033 15.4202 7.40602 15.254 7.16733 15.0762C7.47765 14.7396 7.72622 14.3745 7.86605 14.0347C8.04446 13.6013 8.06166 13.2576 7.89535 12.9655C7.53216 12.7331 7.19208 12.4622 6.87732 12.1583C6.79421 12.3598 6.68105 12.5506 6.54769 12.7252C6.29101 13.061 5.95838 13.3585 5.5838 13.6113C5.39068 13.3901 5.20637 13.1612 5.03302 12.9228C5.36827 12.7028 5.65627 12.4494 5.85193 12.1934C6.08808 11.8843 6.19037 11.6117 6.15512 11.3452C5.92187 11.038 5.71008 10.7086 5.5223 10.3608C5.41519 10.4868 5.29449 10.6018 5.16338 10.7022C4.8466 10.9448 4.46972 11.1314 4.06622 11.2661C3.94458 10.9994 3.83387 10.7272 3.7381 10.4488C4.08624 10.336 4.40044 10.1824 4.63013 10.0064C4.89713 9.80196 5.04272 9.60588 5.07694 9.38533C4.93491 9.01042 4.81876 8.62033 4.72979 8.21777C4.64176 8.26816 4.55072 8.31264 4.45735 8.34963C4.10813 8.48777 3.71907 8.55747 3.31922 8.57228C3.28819 8.28353 3.27108 7.99089 3.2708 7.69478C3.59691 7.68246 3.90193 7.62742 4.13518 7.53517C4.3508 7.44986 4.49119 7.35705 4.57313 7.24221C4.52541 6.78658 4.51079 6.31924 4.53502 5.84472C4.50455 5.8496 4.47455 5.85316 4.44418 5.85644C4.13368 5.89042 3.80874 5.86347 3.48765 5.79349C3.55187 5.51317 3.63155 5.23052 3.72643 4.94678C3.95471 4.99052 4.17352 5.00411 4.34893 4.98494C4.47146 4.97153 4.56137 4.9495 4.63018 4.91903C4.69557 4.50044 4.78988 4.09197 4.91002 3.69878C4.71399 3.66428 4.52171 3.60072 4.3358 3.51714C4.46865 3.26135 4.61358 3.00489 4.7738 2.74816C4.88696 2.7933 4.99487 2.82621 5.08726 2.8405C5.13915 2.84847 5.18208 2.85292 5.21766 2.85363C5.30888 2.63613 5.40619 2.42378 5.51213 2.21786C5.7886 1.66464 6.09408 1.08114 6.30901 0.439565V0.439472ZM17.7641 0.439472C17.9789 1.081 18.2844 1.66455 18.561 2.21782C18.6669 2.42374 18.7656 2.63608 18.8567 2.85353C18.892 2.85278 18.9346 2.84824 18.9856 2.84041C19.0785 2.82607 19.187 2.79353 19.3006 2.74807C19.4609 3.0048 19.6058 3.26125 19.7386 3.5171C19.5523 3.60082 19.3591 3.66428 19.163 3.69878C19.2832 4.09207 19.3774 4.50035 19.4427 4.91894C19.5118 4.94978 19.6023 4.97144 19.7255 4.98494C19.9009 5.00416 20.1197 4.99057 20.348 4.94683C20.443 5.23103 20.5211 5.51421 20.5854 5.79503C20.2649 5.86474 19.9403 5.89047 19.6303 5.85658C19.5995 5.85321 19.569 5.84978 19.5381 5.84486C19.5623 6.31942 19.5491 6.78668 19.5014 7.2423C19.5834 7.35714 19.7238 7.44996 19.9395 7.53527C20.1723 7.62738 20.4767 7.68246 20.8022 7.69493C20.802 7.99099 20.7849 8.28368 20.754 8.57243C20.3546 8.55743 19.9661 8.48768 19.6172 8.34977C19.5238 8.31274 19.4329 8.26821 19.3448 8.21786C19.2559 8.61981 19.1393 9.00958 18.9976 9.38388C19.0311 9.60513 19.1755 9.80163 19.4429 10.0065C19.6728 10.1824 19.9869 10.336 20.3351 10.4488C20.2393 10.7272 20.1286 10.9994 20.007 11.2662C19.6039 11.1314 19.2277 10.9445 18.9113 10.7023C18.7798 10.6016 18.6581 10.487 18.5509 10.3609C18.3629 10.7088 18.1515 11.038 17.9181 11.3453C17.8824 11.6116 17.9851 11.8844 18.2214 12.1935C18.4167 12.4493 18.7048 12.703 19.0401 12.923C18.8668 13.1613 18.6825 13.3901 18.4893 13.6114C18.1148 13.3585 17.7822 13.0611 17.5255 12.7252C17.3925 12.5511 17.2801 12.3606 17.1974 12.1597C16.8828 12.4634 16.5422 12.7333 16.1792 12.9654C16.013 13.2576 16.0302 13.6013 16.2086 14.0347C16.3485 14.3746 16.5971 14.7396 16.9074 15.0763C16.6686 15.2542 16.423 15.4201 16.172 15.5743C15.8438 15.2029 15.5742 14.7954 15.3986 14.3687C15.2808 14.0824 15.2089 13.777 15.2008 13.4737C14.8494 13.6173 14.483 13.7277 14.1037 13.8018C13.9221 14.0493 13.8712 14.3795 13.9265 14.8067C13.9887 15.2878 14.2115 15.8534 14.5343 16.3741C13.8793 16.6164 13.2081 16.7766 12.5392 16.8399L12.6212 17.713C13.4575 17.6339 14.2875 17.4263 15.0866 17.108C15.4264 17.4843 15.8065 17.7898 16.1661 17.9649C16.45 18.103 16.7009 18.1678 16.9323 18.148C17.551 17.8893 18.1362 17.5713 18.6827 17.2017C18.0313 17.0367 17.3907 16.6723 16.8297 16.2084C17.0848 16.0442 17.3332 15.8665 17.5753 15.6797C18.0525 16.0361 18.5811 16.2949 19.0314 16.3828C19.3152 16.4382 19.5512 16.4383 19.7506 16.3711C20.3699 15.8185 20.9187 15.1911 21.3854 14.5064C20.6961 14.5497 19.9545 14.3641 19.2715 14.0493C19.4647 13.819 19.6496 13.5811 19.8237 13.3345C20.3532 13.5506 20.9083 13.662 21.3443 13.6318C21.6428 13.6112 21.8678 13.545 22.0342 13.4135C22.3709 12.7556 22.6374 12.058 22.8238 11.332C22.8081 11.3378 22.7927 11.3442 22.7769 11.3496C22.1978 11.5487 21.5289 11.571 20.8741 11.4726C20.9929 11.1975 21.0997 10.9158 21.1934 10.6289C21.6732 10.677 22.1445 10.6397 22.4913 10.5205C22.7615 10.4276 22.9436 10.3116 23.0523 10.1484C23.1444 9.44781 23.1635 8.72725 23.1022 7.99657C23.1001 7.99788 23.0983 7.99961 23.0963 8.00097C22.6758 8.27791 22.1602 8.44549 21.6256 8.52391C21.6519 8.2285 21.6657 7.92921 21.6636 7.62743C22.0349 7.55327 22.3766 7.42507 22.6142 7.2685C22.7827 7.1576 22.893 7.05269 22.9556 6.93888C22.8181 6.22478 22.6055 5.53957 22.3271 4.89255C22.0765 5.15364 21.7584 5.35942 21.4102 5.51805C21.3433 5.23314 21.2619 4.94782 21.167 4.66108C21.3922 4.54328 21.5861 4.40496 21.7104 4.27141C21.8141 4.16003 21.8699 4.07688 21.8892 4.00047C21.6093 3.49544 21.2885 3.01821 20.9311 2.57219C20.8072 2.75013 20.6531 2.90875 20.4814 3.05125C20.3453 2.79096 20.198 2.53141 20.0361 2.27191C20.1396 2.17038 20.2214 2.06753 20.269 1.98175C20.2942 1.93628 20.3121 1.90413 20.3232 1.87778C20.2245 1.77499 20.1228 1.67463 20.02 1.57605C19.2281 0.994987 18.5855 0.704175 17.7641 0.439331L17.7641 0.439472ZM7.16288 3.29594L8.29229 9.37647H15.9843L17.058 3.54053L14.3422 6.5171L12.2343 3.36775L10.1249 6.51714L7.16297 3.29599L7.16288 3.29594ZM8.4549 10.2525L8.62191 11.1533H15.6576L15.8232 10.2524H8.45499L8.4549 10.2525Z" fill="#F2A900"/>
</svg>
