<svg xmlns="http://www.w3.org/2000/svg" width="24" height="23" fill="none" viewBox="0 0 24 23"><path fill="#F2A900" d="M6.8839 0.976944C6.29632 0.975257 5.74634 1.11101 5.13617 1.41869H5.13636C2.87604 2.55935 0.935887 5.65938 0.842887 8.24576L2.80451 8.91307C3.00748 6.01198 5.01031 2.89573 7.56359 1.60713H7.56368C7.77101 1.5026 7.97722 1.41204 8.18173 1.33526L7.13829 0.986038C7.05251 0.980272 6.96786 0.977132 6.8839 0.976944ZM9.66547 1.92335C9.17431 1.91913 8.59521 2.06833 7.95809 2.38943L7.95828 2.38924C5.6975 3.53018 3.75711 6.63204 3.66696 9.20655L11.0022 11.7022C11.1834 8.78562 13.1958 5.63787 15.7653 4.34116H15.7654L15.7655 4.34102C15.9672 4.2394 16.1679 4.1509 16.367 4.07543L10.0604 1.96437C9.93612 1.93896 9.80459 1.92466 9.66542 1.92344L9.66547 1.92335ZM17.8672 4.65724C17.3761 4.65302 16.797 4.80218 16.16 5.12318L16.1598 5.12327C13.8827 6.27255 11.9305 9.41107 11.8667 11.9962L14.0325 12.7331C14.216 9.81804 16.2275 6.67338 18.7954 5.37748C19.0073 5.27046 19.2191 5.17788 19.4296 5.10044L18.1853 4.68401C18.0839 4.6676 17.978 4.65823 17.8673 4.65729L17.8672 4.65724ZM20.8463 5.68915C20.365 5.69351 19.8106 5.84632 19.19 6.15949C16.9795 7.27512 15.0755 10.2651 14.9075 12.804L23.0895 9.34812C23.0705 7.51952 22.5854 6.47449 21.945 6.01615C21.835 5.9374 21.7169 5.87285 21.5911 5.82223L21.5907 5.82382L21.3687 5.74957C21.2056 5.70799 21.0314 5.68737 20.8463 5.6891L20.8463 5.68915ZM0.839043 9.16976L0.837402 17.9581L2.78717 18.6365V9.83266L0.839043 9.16985V9.16976ZM3.66326 10.1306V18.9413L10.989 21.4899V12.6228L9.62712 12.1594V17.7577L4.89022 16.1601V10.548L3.66326 10.1306ZM23.0798 10.3032L14.9265 13.747V22.6174L23.0797 19.1719V10.3032L23.0798 10.3032ZM5.76636 10.8461V15.5312L8.75112 16.5379V11.8615L5.7664 10.8461L5.76636 10.8461ZM7.23382 12.196C7.68875 12.196 8.05756 12.5648 8.05756 13.0197C8.05756 13.3169 7.89959 13.5766 7.66348 13.7214V15.0588H6.78739V13.7113C6.56061 13.5646 6.41014 13.3099 6.41014 13.0197C6.41014 12.5648 6.7789 12.196 7.23382 12.196ZM11.8649 12.9209V21.7946L14.0505 22.555V13.6645L11.8649 12.9209H11.8649Z"/></svg>