<svg xmlns="http://www.w3.org/2000/svg" width="18" height="24" fill="none" viewBox="0 0 18 24"><path fill="#F2A900" d="M15.8719 7.71563C15.8719 4.01626 12.7922 0.849854 9 0.849854C5.19844 0.849854 2.12813 3.9197 2.12813 7.71563V11.1047H4.45312V7.86563C4.45312 5.34845 6.4875 3.30657 9 3.30657C11.5078 3.30657 13.5469 5.25938 13.5469 7.71563H15.8719ZM1.07344 11.9813C0.384375 13.05 0 14.2828 0 15.5813C0 19.7203 3.98438 23.1516 9 23.1516C14.0156 23.1516 18 19.7203 18 15.5813C18 14.2828 17.6109 13.05 16.9266 11.9813H1.07344ZM8.98594 13.1016C10.0312 13.1016 10.9031 13.9453 10.9031 14.9906C10.9031 15.7781 10.4062 16.4531 9.72656 16.7391L11.2594 21.3422H6.74063L8.24531 16.7391C7.56562 16.4531 7.09687 15.7734 7.09687 14.9906C7.09687 13.9453 7.94062 13.1016 8.98594 13.1016Z"/></svg>